<?xml version="1.0" encoding="UTF-8"?>
<!DOCTYPE svg PUBLIC "-//W3C//DTD SVG 1.0//EN" "http://www.w3.org/TR/2001/REC-SVG-20010904/DTD/svg10.dtd">
<!-- Creator: CorelDRAW 2017 -->
<svg xmlns="http://www.w3.org/2000/svg" xml:space="preserve" width="823px" height="670px" version="1.0" shape-rendering="geometricPrecision" text-rendering="geometricPrecision" image-rendering="optimizeQuality" fill-rule="evenodd" clip-rule="evenodd"
viewBox="0 0 2714 2208"
 xmlns:xlink="http://www.w3.org/1999/xlink">
 <g id="Layer_x0020_1">
  <metadata id="CorelCorpID_0Corel-Layer"/>
  <g id="_2332399424896">
   <g>
    <path fill="#373435" d="M739 1800c18,28 29,54 41,83 8,16 13,48 52,48 12,0 28,-4 43,-12 17,-9 29,-22 36,-42l16 -53 38 -19 3 3c-5,20 -7,39 -7,54 0,44 39,61 69,61 18,0 34,-8 34,-25 0,-21 -9,-57 -20,-89 18,-18 35,-36 56,-50l3 1c9,38 14,76 14,101 0,24 -11,51 -20,69 -18,35 -51,63 -90,63 -30,0 -64,-15 -87,-43l-1 0c-22,26 -55,51 -109,51l-16 0c-3,35 -10,60 -22,82 -32,63 -126,107 -215,107 -124,0 -186,-72 -186,-167 0,-58 19,-113 48,-152l25 10c-19,35 -31,69 -31,101 0,90 72,132 156,132 77,0 173,-50 190,-107 -6,-62 -30,-91 -66,-148 11,-19 25,-38 43,-59l3 0z"/>
    <path fill="#373435" d="M1201 1734l46 73c16,27 31,57 31,103l0 60c0,48 -30,100 -80,151 -39,35 -74,49 -106,49 -47,0 -101,-14 -164,-41l7 -19c20,6 43,10 71,10 90,-1 182,-66 225,-147 5,-9 7,-18 7,-24 0,-9 -6,-19 -9,-28 -23,-44 -49,-84 -77,-120 15,-23 29,-46 45,-68l4 1z"/>
    <path fill="#373435" d="M1333 1866c2,47 25,84 105,84 50,0 92,-13 138,-35 9,-4 13,-9 13,-13 0,-30 -22,-68 -60,-104 -36,-33 -85,-62 -130,-82 -16,-6 -21,-13 -21,-20 0,-13 18,-42 33,-62l5 0c52,27 110,67 153,112 39,41 63,83 63,129 0,34 -10,66 -27,95 -57,29 -117,50 -177,50 -73,0 -123,-34 -123,-114 0,-9 0,-22 3,-40l25 0z"/>
    <path fill="#373435" d="M1715 2023c6,-34 7,-73 7,-108l0 -54c0,-99 -13,-244 -23,-338 18,-19 42,-42 62,-57l6 2c13,118 17,255 17,382 0,33 -2,66 -5,90 -2,29 -19,52 -56,87l-8 -4z"/>
    <path fill="#373435" d="M1876 1827c37,75 70,117 144,117l12 0 0 70 -14 0c-28,0 -48,-5 -64,-17l-3 0c1,6 1,13 1,19 0,25 -8,58 -25,84 -51,75 -106,108 -153,108 -48,0 -107,-19 -160,-42l10 -19c17,7 41,12 74,12 85,0 198,-83 212,-163 -4,-6 -9,-15 -18,-24 -25,-30 -40,-55 -55,-81 13,-25 24,-45 35,-63l4 -1z"/>
    <path fill="#373435" d="M2167 1465c26,16 51,36 76,58 -14,19 -31,37 -53,53 -25,-20 -50,-37 -75,-56 17,-19 34,-38 52,-55zm13 244c-42,0 -77,27 -77,48 0,44 85,58 186,57 -13,-52 -57,-105 -109,-105zm-95 235c55,0 103,-1 140,-10 41,-11 75,-31 75,-46 0,-3 0,-8 -1,-11 -23,2 -49,2 -72,2 -75,0 -131,-17 -154,-59 -5,-11 -9,-24 -9,-39 0,-40 17,-80 48,-107 25,-22 53,-36 82,-36 52,0 93,41 122,107 16,36 27,77 27,129 0,35 -10,64 -31,86 -41,39 -115,54 -229,54l-51 0c-35,0 -45,-22 -45,-36 0,-13 10,-34 45,-34l53 0z"/>
   </g>
   <path fill="#D2D3D5" d="M645 175c4,-13 -7,-26 -23,-28 -33,-5 -65,-9 -98,-11 -16,-1 -33,9 -38,21 -8,25 -16,49 -25,73 -4,12 7,23 24,24 34,3 68,7 102,12 17,3 34,-5 38,-17 7,-25 14,-50 20,-74z"/>
   <path fill="#D2D3D5" d="M825 221c3,-13 -8,-28 -25,-33 -32,-10 -64,-19 -96,-26 -16,-3 -33,4 -36,17 -7,25 -13,49 -20,74 -3,13 8,26 25,30 34,7 67,16 101,27 17,5 33,-1 36,-14 5,-25 10,-50 15,-75z"/>
   <path fill="#D2D3D5" d="M1003 294c1,-13 -10,-30 -26,-38 -32,-14 -64,-28 -95,-40 -17,-6 -32,0 -34,12 -5,26 -10,51 -15,76 -3,13 9,28 26,34 33,13 67,27 100,42 17,7 32,3 33,-10 4,-25 7,-51 11,-76z"/>
   <path fill="#D2D3D5" d="M1177 394c0,-13 -12,-32 -27,-42 -31,-20 -62,-38 -94,-55 -16,-9 -30,-5 -31,8 -4,25 -7,51 -10,76 -2,13 11,31 28,39 32,18 65,36 97,56 17,10 31,8 32,-5 1,-26 3,-51 5,-77z"/>
   <path fill="#D2D3D5" d="M607 312c4,-12 -8,-25 -25,-28 -34,-5 -68,-10 -103,-12 -17,-1 -35,8 -39,20 -8,25 -17,49 -25,73 -4,12 7,23 25,25 36,3 72,8 107,13 18,3 36,-4 39,-17 7,-24 14,-49 21,-74z"/>
   <path fill="#D2D3D5" d="M569 450c3,-13 -9,-26 -27,-29 -36,-6 -72,-10 -108,-14 -18,-1 -36,8 -40,20 -9,25 -17,49 -25,73 -5,13 7,24 26,26 38,3 75,8 112,15 19,3 38,-5 41,-17 7,-25 14,-50 21,-74z"/>
   <path fill="#D2D3D5" d="M768 501c3,-13 -10,-29 -28,-34 -36,-11 -71,-20 -107,-28 -18,-4 -36,3 -39,16 -7,24 -14,49 -20,74 -4,13 9,26 28,30 37,9 74,19 111,30 19,5 37,0 40,-13 5,-25 10,-50 15,-75z"/>
   <path fill="#D2D3D5" d="M965 577c2,-13 -11,-30 -29,-38 -35,-15 -71,-29 -106,-42 -18,-7 -35,-1 -37,12 -5,25 -10,50 -15,75 -3,13 11,29 30,35 37,13 73,28 110,43 19,8 35,4 37,-9 3,-25 7,-51 10,-76z"/>
   <path fill="#D2D3D5" d="M530 587c4,-12 -9,-26 -28,-29 -37,-6 -75,-11 -112,-15 -20,-2 -38,7 -43,19 -8,25 -16,49 -25,73 -4,13 9,24 28,26 39,4 78,10 117,17 20,3 39,-4 43,-17 7,-24 13,-49 20,-74z"/>
   <path fill="#D2D3D5" d="M492 725c3,-13 -10,-26 -30,-30 -39,-7 -78,-12 -117,-16 -20,-3 -40,6 -44,19 -8,24 -17,48 -25,72 -4,13 9,24 30,27 40,4 81,10 121,18 21,3 41,-3 44,-16 7,-25 14,-49 21,-74z"/>
   <path fill="#D2D3D5" d="M1689 305c-1,-13 -16,-17 -32,-8 -31,17 -62,35 -93,55 -16,10 -28,29 -27,42 2,26 3,51 5,77 1,13 15,15 31,5 33,-20 65,-38 98,-56 17,-8 29,-26 28,-39 -4,-25 -7,-51 -10,-76z"/>
   <path fill="#D2D3D5" d="M1866 228c-2,-12 -18,-18 -34,-12 -32,12 -63,26 -95,40 -16,8 -28,25 -26,38 3,25 7,51 10,76 2,13 17,17 34,10 33,-15 66,-29 100,-42 17,-6 28,-21 26,-34 -5,-25 -10,-50 -15,-76z"/>
   <path fill="#D2D3D5" d="M2046 179c-4,-13 -20,-20 -36,-17 -33,7 -65,16 -97,26 -16,5 -27,20 -25,33 6,25 11,50 16,75 3,13 18,19 36,14 33,-11 67,-20 101,-27 17,-4 28,-17 25,-30 -7,-25 -14,-49 -20,-74z"/>
   <path fill="#D2D3D5" d="M1707 447c-2,-13 -17,-17 -34,-8 -33,17 -66,35 -98,55 -17,10 -29,30 -29,43 2,25 4,51 5,77 1,13 16,15 33,4 34,-20 69,-38 103,-56 18,-9 31,-26 29,-39 -3,-25 -6,-51 -9,-76z"/>
   <path fill="#D2D3D5" d="M2274 292c-5,-12 -22,-21 -40,-20 -34,2 -68,7 -102,12 -18,3 -29,16 -25,28 7,25 13,50 20,74 4,13 21,20 40,17 35,-5 71,-10 106,-13 19,-2 30,-13 26,-25 -9,-24 -17,-48 -25,-73z"/>
   <path fill="#D2D3D5" d="M1724 588c-1,-13 -17,-16 -35,-7 -35,17 -69,36 -103,56 -18,10 -31,29 -30,42 1,26 3,51 5,77 0,13 16,15 34,5 36,-20 72,-39 108,-57 19,-9 32,-26 31,-39 -3,-26 -7,-51 -10,-77z"/>
   <path fill="#D2D3D5" d="M2320 427c-4,-12 -23,-21 -41,-20 -36,4 -71,8 -107,14 -19,3 -30,16 -27,29 7,24 14,49 21,74 3,12 21,20 40,17 38,-7 75,-12 112,-15 19,-2 31,-13 27,-26 -8,-24 -17,-48 -25,-73z"/>
   <path fill="#D2D3D5" d="M1742 730c-2,-13 -18,-17 -37,-8 -36,18 -73,37 -109,57 -18,10 -32,30 -31,43 2,25 3,51 5,77 1,13 17,15 36,4 37,-20 75,-39 113,-57 19,-9 34,-27 32,-40 -3,-25 -6,-50 -9,-76z"/>
   <path fill="#D2D3D5" d="M2366 562c-4,-12 -23,-21 -42,-19 -37,4 -75,9 -112,15 -19,3 -32,17 -29,29 7,25 14,50 21,74 4,13 23,20 42,17 39,-7 78,-13 117,-17 20,-2 33,-13 28,-26 -8,-24 -16,-48 -25,-73z"/>
   <path fill="#D2D3D5" d="M1759 872c-1,-13 -18,-17 -38,-8 -38,18 -76,37 -114,58 -19,10 -34,29 -33,42 2,26 3,51 5,77 1,13 18,15 38,5 39,-21 78,-40 118,-58 20,-9 35,-27 34,-40 -3,-25 -6,-51 -10,-76z"/>
   <path fill="#D2D3D5" d="M1976 789c-3,-13 -21,-18 -41,-11 -39,13 -78,28 -116,44 -20,8 -34,25 -33,38 4,26 7,51 10,76 2,13 20,17 41,9 40,-16 80,-31 121,-45 20,-7 35,-23 33,-36 -5,-25 -10,-50 -15,-75z"/>
   <path fill="#D2D3D5" d="M2194 730c-3,-12 -22,-19 -42,-15 -39,9 -78,20 -118,31 -20,6 -34,22 -31,34 5,25 10,51 15,76 3,13 22,18 43,12 40,-12 81,-23 122,-32 21,-5 35,-19 31,-31 -6,-25 -13,-50 -20,-75z"/>
   <path fill="#36ACE2" d="M486 94c-5,13 -22,23 -38,23 -33,0 -65,2 -98,6 -17,2 -26,-6 -21,-18 10,-24 20,-47 29,-71 5,-12 22,-24 38,-26 32,-5 63,-7 94,-8 16,0 25,10 21,22 -8,24 -17,48 -25,72z"/>
   <path fill="#36ACE2" d="M684 37c3,-13 -7,-25 -22,-27 -31,-5 -62,-8 -93,-9 -16,-1 -32,9 -36,21 -8,24 -17,49 -25,73 -4,12 6,23 22,24 32,2 65,5 97,10 16,3 33,-5 36,-18 7,-25 14,-49 21,-74z"/>
   <path fill="#36ACE2" d="M854 81c2,-13 -8,-28 -23,-33 -31,-9 -61,-17 -91,-24 -16,-4 -31,4 -35,17 -7,25 -13,50 -20,74 -3,13 7,26 24,29 32,8 64,16 95,26 17,5 32,-1 34,-14 6,-25 11,-50 16,-75z"/>
   <path fill="#36ACE2" d="M1021 152c2,-13 -9,-30 -24,-37 -30,-15 -60,-28 -90,-40 -15,-6 -30,0 -32,13 -5,25 -10,51 -15,76 -2,13 9,28 25,34 31,12 63,25 94,40 16,8 31,4 32,-9 4,-26 7,-51 10,-77z"/>
   <path fill="#36ACE2" d="M1186 252c1,-13 -11,-32 -25,-42 -30,-20 -59,-38 -89,-55 -15,-9 -28,-5 -30,8 -3,26 -6,51 -9,77 -2,13 10,30 25,39 32,17 62,35 93,55 16,10 29,8 30,-5 2,-26 3,-52 5,-77z"/>
   <path fill="#36ACE2" d="M1346 380c0,-13 -12,-34 -26,-47 -28,-25 -57,-48 -86,-71 -14,-11 -27,-9 -28,4 -1,26 -3,51 -4,77 -1,13 11,33 26,44 31,22 61,45 90,70 15,13 27,13 27,0 0,-25 0,-51 1,-77z"/>
   <path fill="#36ACE2" d="M464 157c4,-13 -6,-23 -23,-23 -32,1 -65,3 -98,6 -17,2 -34,14 -39,26 -10,23 -20,47 -30,71 -5,12 5,20 23,19 34,-4 68,-5 102,-5 17,0 35,-9 39,-22 9,-24 17,-48 26,-72z"/>
   <path fill="#36ACE2" d="M1345 523c0,-13 -12,-34 -27,-47 -30,-25 -60,-49 -90,-71 -16,-11 -29,-9 -30,4 -1,25 -3,51 -4,77 -1,13 12,32 28,43 32,23 63,46 94,71 16,13 29,13 29,0 0,-26 0,-51 0,-77z"/>
   <path fill="#36ACE2" d="M416 291c4,-12 -6,-23 -24,-23 -34,0 -68,2 -102,5 -18,1 -36,13 -41,25 -10,23 -20,47 -29,71 -5,12 5,20 23,19 36,-3 71,-3 107,-3 18,1 36,-9 41,-21 8,-24 17,-48 25,-73z"/>
   <path fill="#36ACE2" d="M797 361c2,-13 -10,-28 -27,-33 -34,-11 -68,-20 -102,-27 -17,-4 -34,3 -37,16 -7,25 -14,49 -20,74 -4,13 8,26 26,30 36,8 71,18 107,28 18,6 35,0 37,-13 5,-25 10,-50 16,-75z"/>
   <path fill="#36ACE2" d="M984 436c2,-13 -11,-31 -28,-38 -33,-15 -67,-29 -100,-42 -17,-6 -33,0 -36,13 -5,25 -10,50 -15,75 -2,13 10,28 28,35 35,13 71,27 105,42 18,8 34,4 36,-9 3,-26 6,-51 10,-76z"/>
   <path fill="#36ACE2" d="M1167 537c1,-13 -12,-33 -28,-43 -33,-20 -66,-38 -99,-55 -16,-9 -31,-5 -33,8 -3,25 -6,51 -9,76 -2,13 11,30 29,39 34,18 68,36 102,56 18,11 33,9 33,-4 2,-26 4,-52 5,-77z"/>
   <path fill="#36ACE2" d="M1344 666c0,-13 -12,-35 -28,-47 -31,-25 -63,-49 -95,-71 -16,-12 -30,-10 -31,3 -2,26 -3,52 -4,77 -1,13 12,33 29,44 34,22 67,46 99,71 17,13 30,13 30,0 0,-26 0,-51 0,-77z"/>
   <path fill="#36ACE2" d="M369 426c4,-12 -7,-23 -25,-23 -36,-1 -72,0 -108,2 -18,1 -36,13 -42,25 -9,23 -19,47 -29,71 -5,12 6,20 25,19 37,-1 74,-2 111,-1 19,1 38,-8 42,-20 9,-25 17,-49 26,-73z"/>
   <path fill="#36ACE2" d="M1158 679c1,-13 -12,-32 -30,-42 -34,-20 -69,-39 -103,-56 -18,-9 -34,-6 -36,7 -3,26 -6,51 -9,77 -2,13 12,30 31,39 36,18 72,37 108,57 18,10 33,8 34,-5 2,-26 3,-51 5,-77z"/>
   <path fill="#36ACE2" d="M1344 809c0,-13 -13,-35 -30,-48 -33,-25 -66,-48 -100,-71 -17,-11 -31,-9 -32,4 -2,26 -3,51 -5,77 0,13 14,32 32,44 35,22 69,46 103,71 18,13 31,13 31,0 1,-26 1,-52 1,-77z"/>
   <path fill="#36ACE2" d="M321 561c5,-13 -7,-24 -26,-24 -38,-2 -75,-1 -112,0 -19,1 -38,12 -43,25 -10,23 -20,47 -30,71 -5,12 7,21 27,20 38,-1 76,-1 115,1 20,0 39,-8 44,-21 8,-24 17,-48 25,-72z"/>
   <path fill="#36ACE2" d="M739 640c3,-12 -10,-28 -29,-33 -38,-11 -75,-21 -113,-30 -19,-4 -37,3 -40,16 -7,24 -14,49 -20,74 -4,12 9,26 29,31 39,9 78,19 117,30 20,6 38,1 41,-12 5,-25 10,-50 15,-76z"/>
   <path fill="#36ACE2" d="M946 719c2,-13 -12,-31 -31,-39 -37,-15 -74,-30 -111,-43 -19,-6 -36,-1 -39,12 -5,25 -10,50 -14,75 -3,13 11,29 31,36 39,13 77,28 116,44 19,8 36,4 38,-9 4,-26 7,-51 10,-76z"/>
   <path fill="#36ACE2" d="M1149 822c1,-13 -13,-33 -32,-43 -36,-20 -72,-39 -108,-57 -19,-9 -35,-5 -37,8 -3,26 -6,51 -10,76 -1,13 13,31 33,40 38,18 75,37 113,57 19,11 35,9 36,-4 1,-26 3,-52 5,-77z"/>
   <path fill="#36ACE2" d="M1343 952c0,-14 -14,-35 -31,-48 -34,-25 -69,-49 -104,-71 -18,-11 -34,-10 -34,4 -2,25 -3,51 -5,76 0,13 14,33 33,44 37,23 73,47 108,72 18,12 33,13 33,-1 0,-25 0,-51 0,-76z"/>
   <path fill="#36ACE2" d="M274 695c4,-12 -9,-23 -28,-24 -39,-2 -78,-2 -116,-1 -20,1 -40,11 -45,24 -10,23 -19,47 -29,71 -5,12 7,21 27,20 40,0 80,0 120,3 21,1 41,-8 45,-20 9,-24 17,-48 26,-73z"/>
   <path fill="#36ACE2" d="M711 780c2,-12 -12,-28 -32,-34 -39,-11 -78,-22 -117,-31 -20,-4 -39,3 -43,15 -6,25 -13,50 -20,75 -3,12 11,26 32,31 41,9 81,20 122,32 21,6 40,1 42,-12 5,-25 11,-51 16,-76z"/>
   <path fill="#36ACE2" d="M927 860c2,-13 -12,-30 -32,-38 -39,-16 -78,-31 -117,-44 -19,-7 -38,-2 -40,11 -5,25 -10,50 -15,75 -2,13 12,29 33,36 41,14 81,29 121,45 21,8 39,4 40,-9 4,-25 7,-50 10,-76z"/>
   <path fill="#36ACE2" d="M1140 964c0,-13 -14,-32 -34,-42 -37,-21 -75,-40 -113,-58 -20,-9 -37,-5 -39,8 -3,25 -6,51 -9,76 -2,13 13,31 34,40 39,18 79,37 118,58 20,10 37,8 38,-5 1,-26 3,-51 5,-77z"/>
   <path fill="#36ACE2" d="M1343 1094c0,-13 -15,-34 -33,-47 -36,-25 -72,-49 -109,-71 -19,-12 -35,-10 -35,3 -2,26 -3,51 -5,77 -1,13 15,33 34,44 39,23 76,46 113,71 19,13 34,13 34,0 0,-25 0,-51 1,-77z"/>
   <path fill="#36ACE2" d="M226 830c5,-12 -9,-24 -29,-25 -41,-2 -81,-3 -121,-3 -20,1 -40,11 -45,23 -10,24 -20,48 -30,71 -5,13 8,22 29,22 41,0 82,1 124,4 21,1 42,-7 47,-19 8,-25 17,-49 25,-73z"/>
   <path fill="#36ACE2" d="M454 862c3,-12 -11,-26 -32,-30 -41,-7 -82,-13 -122,-18 -21,-2 -41,6 -46,19 -8,24 -16,48 -24,72 -5,13 9,25 31,27 42,5 84,12 126,20 22,4 42,-3 46,-16 7,-24 14,-49 21,-74z"/>
   <path fill="#36ACE2" d="M682 920c3,-13 -12,-28 -33,-34 -41,-12 -82,-23 -123,-32 -21,-5 -40,2 -44,14 -6,25 -13,50 -20,75 -3,12 11,26 33,31 43,10 85,21 128,33 21,7 41,1 44,-11 5,-26 10,-51 15,-76z"/>
   <path fill="#36ACE2" d="M909 1002c1,-13 -14,-31 -34,-39 -41,-16 -82,-31 -122,-45 -21,-7 -40,-2 -42,11 -5,25 -10,50 -15,76 -3,13 13,28 34,36 43,14 85,29 127,45 21,8 40,5 42,-8 3,-25 6,-51 10,-76z"/>
   <path fill="#36ACE2" d="M1130 1107c1,-13 -14,-33 -34,-43 -40,-20 -79,-40 -119,-58 -21,-9 -39,-5 -40,8 -3,25 -7,50 -10,76 -1,13 15,31 36,40 41,18 82,38 123,58 21,10 38,9 39,-4 2,-26 4,-52 5,-77z"/>
   <path fill="#36ACE2" d="M1342 1237c0,-13 -15,-34 -34,-47 -37,-25 -75,-49 -114,-72 -19,-11 -36,-9 -37,4 -1,25 -3,51 -4,76 -1,14 15,33 36,45 40,22 79,46 117,71 20,13 36,13 36,0 0,-26 0,-51 0,-77z"/>
   <path fill="#36ACE2" d="M1512 343c1,13 -11,33 -27,44 -30,22 -60,45 -89,70 -15,13 -27,13 -28,0 0,-25 0,-51 0,-77 0,-13 12,-34 26,-47 28,-25 57,-48 85,-71 15,-11 28,-9 29,4 1,26 2,51 4,77z"/>
   <path fill="#36ACE2" d="M1672 163c-2,-13 -16,-17 -31,-8 -29,17 -59,35 -88,55 -15,10 -26,29 -25,42 1,25 3,51 5,77 1,13 14,15 30,5 30,-20 61,-38 92,-55 16,-9 28,-26 26,-39 -3,-26 -6,-51 -9,-77z"/>
   <path fill="#36ACE2" d="M1839 88c-3,-13 -17,-19 -33,-13 -30,12 -60,25 -89,40 -15,7 -26,24 -25,37 4,26 7,51 10,77 2,13 16,17 32,9 32,-15 63,-28 95,-40 16,-6 27,-21 25,-34 -5,-25 -10,-51 -15,-76z"/>
   <path fill="#36ACE2" d="M2009 41c-4,-13 -19,-21 -35,-17 -30,7 -61,15 -91,24 -15,5 -26,20 -23,33 5,25 10,50 15,75 3,13 18,19 34,14 32,-10 64,-18 96,-26 16,-3 27,-16 24,-29 -7,-24 -14,-49 -20,-74z"/>
   <path fill="#36ACE2" d="M2181 22c-4,-12 -21,-22 -37,-21 -31,1 -61,4 -92,9 -16,2 -26,14 -22,27 7,25 14,49 21,74 3,13 19,21 36,18 32,-5 64,-8 97,-10 16,-1 26,-12 22,-24 -8,-24 -17,-49 -25,-73z"/>
   <path fill="#36ACE2" d="M2355 34c-5,-12 -22,-24 -38,-26 -31,-5 -62,-7 -94,-8 -15,0 -25,10 -20,22 8,24 17,48 25,72 4,13 21,23 38,23 33,0 65,2 98,6 16,2 26,-6 21,-18 -10,-24 -20,-47 -30,-71z"/>
   <path fill="#36ACE2" d="M1516 409c-1,-13 -14,-15 -30,-4 -30,22 -60,46 -90,71 -15,13 -27,34 -27,47 0,26 0,51 0,77 0,13 13,13 29,0 31,-25 62,-48 94,-71 16,-11 29,-30 28,-43 -1,-26 -3,-52 -4,-77z"/>
   <path fill="#36ACE2" d="M2227 157c-4,-12 -21,-22 -38,-21 -32,2 -65,6 -97,11 -17,2 -27,15 -24,28 7,24 14,49 21,74 3,12 20,20 38,17 34,-5 68,-9 102,-12 17,-1 28,-12 23,-24 -8,-24 -16,-48 -25,-73z"/>
   <path fill="#36ACE2" d="M2410 166c-5,-12 -23,-24 -39,-26 -33,-3 -66,-5 -99,-6 -16,0 -26,10 -22,23 9,24 17,48 26,72 4,13 22,22 39,22 34,0 68,1 102,5 17,1 27,-7 22,-19 -9,-24 -19,-48 -29,-71z"/>
   <path fill="#36ACE2" d="M1524 551c-1,-13 -15,-15 -31,-3 -32,22 -64,46 -95,71 -16,12 -29,34 -29,47 0,26 1,51 1,77 0,13 13,13 30,0 32,-25 65,-49 99,-71 17,-11 30,-31 29,-44 -1,-25 -3,-51 -4,-77z"/>
   <path fill="#36ACE2" d="M1894 369c-3,-13 -19,-19 -36,-13 -34,13 -67,27 -101,42 -16,7 -29,25 -27,38 3,25 7,50 10,76 2,13 17,17 35,9 35,-15 70,-29 105,-42 18,-7 31,-22 28,-35 -5,-25 -10,-50 -14,-75z"/>
   <path fill="#36ACE2" d="M2083 317c-4,-13 -20,-20 -38,-16 -34,7 -68,16 -101,27 -18,5 -29,20 -27,33 5,25 10,50 16,75 2,13 19,19 37,13 35,-10 71,-20 106,-28 18,-4 30,-17 27,-30 -7,-25 -13,-49 -20,-74z"/>
   <path fill="#36ACE2" d="M2465 298c-5,-12 -24,-24 -41,-25 -34,-3 -68,-5 -103,-5 -17,0 -28,11 -23,23 8,25 17,49 25,73 4,12 23,22 41,21 35,0 71,0 106,3 19,1 29,-7 24,-19 -10,-24 -20,-48 -29,-71z"/>
   <path fill="#36ACE2" d="M1532 694c-1,-13 -15,-15 -33,-4 -33,23 -66,46 -99,71 -17,13 -30,35 -30,48 0,25 0,51 0,77 0,13 14,13 32,0 34,-25 68,-49 103,-71 18,-12 32,-31 31,-44 -1,-26 -3,-51 -4,-77z"/>
   <path fill="#36ACE2" d="M1921 509c-3,-13 -19,-19 -37,-12 -36,13 -71,27 -106,42 -18,8 -31,25 -29,38 3,25 6,51 10,76 1,13 18,17 37,9 36,-15 73,-30 110,-43 19,-6 32,-22 30,-35 -5,-25 -10,-50 -15,-75z"/>
   <path fill="#36ACE2" d="M2120 455c-3,-13 -21,-20 -39,-16 -36,8 -72,17 -107,28 -18,5 -31,21 -28,34 5,25 10,50 15,75 3,13 20,18 39,13 37,-11 75,-21 112,-30 19,-4 31,-17 28,-30 -7,-25 -13,-50 -20,-74z"/>
   <path fill="#36ACE2" d="M2519 430c-5,-12 -24,-24 -42,-25 -35,-2 -71,-3 -107,-2 -18,0 -29,11 -25,23 9,24 17,48 26,73 4,12 23,21 42,20 37,-1 74,0 111,1 19,1 30,-7 25,-19 -10,-24 -20,-48 -30,-71z"/>
   <path fill="#36ACE2" d="M1540 837c-1,-14 -16,-15 -34,-4 -35,22 -70,46 -104,71 -18,13 -32,34 -31,48 0,25 0,51 0,76 0,14 14,13 32,1 36,-25 72,-49 109,-72 19,-11 33,-31 32,-44 -1,-25 -3,-51 -4,-76z"/>
   <path fill="#36ACE2" d="M1948 649c-2,-13 -20,-18 -39,-12 -37,13 -74,28 -111,43 -18,8 -32,26 -31,39 4,25 7,50 11,76 1,13 18,17 38,9 39,-16 77,-31 116,-44 20,-7 34,-23 31,-36 -5,-25 -10,-50 -15,-75z"/>
   <path fill="#36ACE2" d="M2157 593c-3,-13 -22,-20 -41,-16 -37,9 -75,19 -112,30 -19,5 -32,21 -30,33 6,26 11,51 16,76 2,13 21,18 40,12 39,-11 78,-21 117,-30 20,-5 34,-19 30,-31 -6,-25 -13,-50 -20,-74z"/>
   <path fill="#36ACE2" d="M2574 562c-5,-13 -24,-24 -43,-25 -37,-1 -75,-2 -112,0 -19,0 -31,11 -26,24 8,24 17,48 25,72 4,13 24,21 44,21 38,-2 77,-2 115,-1 20,1 31,-8 26,-20 -10,-24 -19,-48 -29,-71z"/>
   <path fill="#36ACE2" d="M1548 979c-1,-13 -17,-15 -35,-3 -37,22 -74,46 -109,71 -18,13 -33,34 -33,47 0,26 0,52 0,77 0,13 16,13 34,0 37,-25 75,-48 113,-71 20,-11 35,-31 35,-44 -2,-26 -3,-51 -5,-77z"/>
   <path fill="#36ACE2" d="M2413 698c-4,-13 -24,-22 -44,-19 -39,4 -78,9 -117,16 -20,4 -34,17 -30,30 7,25 13,49 20,74 4,13 24,19 44,16 41,-8 82,-14 122,-18 21,-3 34,-14 30,-27 -9,-24 -17,-48 -25,-72z"/>
   <path fill="#36ACE2" d="M2629 694c-6,-13 -25,-23 -45,-24 -38,-1 -77,-1 -116,1 -20,1 -32,12 -28,24 9,25 17,49 26,73 4,12 24,21 45,20 40,-3 80,-3 120,-3 20,1 32,-8 27,-20 -10,-24 -20,-48 -29,-71z"/>
   <path fill="#36ACE2" d="M1556 1122c0,-13 -17,-15 -37,-4 -38,23 -76,47 -113,72 -19,13 -34,34 -34,47 0,26 0,51 0,77 0,13 16,13 35,0 39,-25 78,-49 118,-71 20,-12 36,-31 36,-45 -2,-25 -3,-51 -5,-76z"/>
   <path fill="#36ACE2" d="M1777 1014c-2,-13 -20,-17 -40,-8 -40,18 -80,38 -119,58 -20,10 -35,30 -35,43 2,25 4,51 5,77 1,13 19,14 39,4 41,-20 82,-40 124,-58 21,-9 37,-27 35,-40 -3,-26 -6,-51 -9,-76z"/>
   <path fill="#36ACE2" d="M2003 929c-2,-13 -21,-18 -42,-11 -41,14 -81,29 -122,45 -20,8 -36,26 -34,39 3,25 7,51 10,76 2,13 21,16 42,8 42,-16 84,-31 126,-45 22,-8 37,-23 35,-36 -5,-26 -10,-51 -15,-76z"/>
   <path fill="#36ACE2" d="M2232 868c-4,-12 -24,-19 -44,-14 -41,9 -82,20 -123,32 -21,6 -36,21 -33,34 5,25 10,50 15,76 3,12 22,18 44,11 42,-12 85,-23 128,-33 21,-5 36,-19 33,-31 -7,-25 -14,-50 -20,-75z"/>
   <path fill="#36ACE2" d="M2459 833c-4,-13 -24,-21 -45,-19 -41,5 -82,11 -123,18 -20,4 -34,18 -31,30 7,25 14,50 21,74 3,13 24,20 45,16 43,-8 85,-15 127,-20 22,-2 35,-14 31,-27 -8,-24 -16,-48 -25,-72z"/>
   <path fill="#36ACE2" d="M2683 825c-5,-12 -25,-22 -46,-23 -39,0 -80,1 -120,3 -21,1 -34,13 -30,25 9,24 18,48 26,73 4,12 25,20 47,19 41,-3 83,-4 124,-4 21,0 34,-9 29,-22 -10,-23 -20,-47 -30,-71z"/>
  </g>
 </g>
</svg>
